<mxfile host="app.diagrams.net" modified="2021-08-16T15:34:54.197Z" agent="5.0 (Windows NT 10.0; Win64; x64) AppleWebKit/537.36 (KHTML, like Gecko) Chrome/92.0.4515.107 Safari/537.36" etag="5jNrcthfI8c5UNHhZCuW" version="14.9.6" type="github">
  <diagram id="NqnBWWsW14oWl0AOZJB6" name="Page-1">
    <mxGraphModel dx="2745" dy="2104" grid="1" gridSize="10" guides="1" tooltips="1" connect="1" arrows="1" fold="1" page="1" pageScale="1" pageWidth="827" pageHeight="1169" math="0" shadow="0">
      <root>
        <mxCell id="0" />
        <mxCell id="1" parent="0" />
        <mxCell id="oNIHpnh7bQgrqTydq-CB-7" value="Company" style="shape=table;startSize=30;container=1;collapsible=1;childLayout=tableLayout;fixedRows=1;rowLines=0;fontStyle=1;align=center;resizeLast=1;" vertex="1" parent="1">
          <mxGeometry x="-140" y="-110" width="260" height="200" as="geometry" />
        </mxCell>
        <mxCell id="oNIHpnh7bQgrqTydq-CB-8" value="" style="shape=partialRectangle;collapsible=0;dropTarget=0;pointerEvents=0;fillColor=none;points=[[0,0.5],[1,0.5]];portConstraint=eastwest;top=0;left=0;right=0;bottom=1;" vertex="1" parent="oNIHpnh7bQgrqTydq-CB-7">
          <mxGeometry y="30" width="260" height="30" as="geometry" />
        </mxCell>
        <mxCell id="oNIHpnh7bQgrqTydq-CB-9" value="PK" style="shape=partialRectangle;overflow=hidden;connectable=0;fillColor=none;top=0;left=0;bottom=0;right=0;fontStyle=1;" vertex="1" parent="oNIHpnh7bQgrqTydq-CB-8">
          <mxGeometry width="30" height="30" as="geometry" />
        </mxCell>
        <mxCell id="oNIHpnh7bQgrqTydq-CB-10" value="idÂ int NOT NULL " style="shape=partialRectangle;overflow=hidden;connectable=0;fillColor=none;top=0;left=0;bottom=0;right=0;align=left;spacingLeft=6;fontStyle=5;" vertex="1" parent="oNIHpnh7bQgrqTydq-CB-8">
          <mxGeometry x="30" width="230" height="30" as="geometry" />
        </mxCell>
        <mxCell id="oNIHpnh7bQgrqTydq-CB-11" value="" style="shape=partialRectangle;collapsible=0;dropTarget=0;pointerEvents=0;fillColor=none;points=[[0,0.5],[1,0.5]];portConstraint=eastwest;top=0;left=0;right=0;bottom=0;" vertex="1" parent="oNIHpnh7bQgrqTydq-CB-7">
          <mxGeometry y="60" width="260" height="30" as="geometry" />
        </mxCell>
        <mxCell id="oNIHpnh7bQgrqTydq-CB-12" value="" style="shape=partialRectangle;overflow=hidden;connectable=0;fillColor=none;top=0;left=0;bottom=0;right=0;" vertex="1" parent="oNIHpnh7bQgrqTydq-CB-11">
          <mxGeometry width="30" height="30" as="geometry" />
        </mxCell>
        <mxCell id="oNIHpnh7bQgrqTydq-CB-13" value="name string NOT NULL" style="shape=partialRectangle;overflow=hidden;connectable=0;fillColor=none;top=0;left=0;bottom=0;right=0;align=left;spacingLeft=6;" vertex="1" parent="oNIHpnh7bQgrqTydq-CB-11">
          <mxGeometry x="30" width="230" height="30" as="geometry" />
        </mxCell>
        <mxCell id="oNIHpnh7bQgrqTydq-CB-94" value="" style="shape=partialRectangle;collapsible=0;dropTarget=0;pointerEvents=0;fillColor=none;points=[[0,0.5],[1,0.5]];portConstraint=eastwest;top=0;left=0;right=0;bottom=0;" vertex="1" parent="oNIHpnh7bQgrqTydq-CB-7">
          <mxGeometry y="90" width="260" height="30" as="geometry" />
        </mxCell>
        <mxCell id="oNIHpnh7bQgrqTydq-CB-95" value="" style="shape=partialRectangle;overflow=hidden;connectable=0;fillColor=none;top=0;left=0;bottom=0;right=0;" vertex="1" parent="oNIHpnh7bQgrqTydq-CB-94">
          <mxGeometry width="30" height="30" as="geometry" />
        </mxCell>
        <mxCell id="oNIHpnh7bQgrqTydq-CB-96" value="bio string NOT NULL" style="shape=partialRectangle;overflow=hidden;connectable=0;fillColor=none;top=0;left=0;bottom=0;right=0;align=left;spacingLeft=6;" vertex="1" parent="oNIHpnh7bQgrqTydq-CB-94">
          <mxGeometry x="30" width="230" height="30" as="geometry" />
        </mxCell>
        <mxCell id="oNIHpnh7bQgrqTydq-CB-111" value="" style="shape=partialRectangle;collapsible=0;dropTarget=0;pointerEvents=0;fillColor=none;points=[[0,0.5],[1,0.5]];portConstraint=eastwest;top=0;left=0;right=0;bottom=0;" vertex="1" parent="oNIHpnh7bQgrqTydq-CB-7">
          <mxGeometry y="120" width="260" height="30" as="geometry" />
        </mxCell>
        <mxCell id="oNIHpnh7bQgrqTydq-CB-112" value="" style="shape=partialRectangle;overflow=hidden;connectable=0;fillColor=none;top=0;left=0;bottom=0;right=0;" vertex="1" parent="oNIHpnh7bQgrqTydq-CB-111">
          <mxGeometry width="30" height="30" as="geometry" />
        </mxCell>
        <mxCell id="oNIHpnh7bQgrqTydq-CB-113" value="image string NOT NULL" style="shape=partialRectangle;overflow=hidden;connectable=0;fillColor=none;top=0;left=0;bottom=0;right=0;align=left;spacingLeft=6;" vertex="1" parent="oNIHpnh7bQgrqTydq-CB-111">
          <mxGeometry x="30" width="230" height="30" as="geometry" />
        </mxCell>
        <mxCell id="oNIHpnh7bQgrqTydq-CB-35" value="" style="edgeStyle=entityRelationEdgeStyle;fontSize=12;html=1;endArrow=ERzeroToMany;endFill=1;startArrow=ERzeroToMany;entryX=0.004;entryY=1.1;entryDx=0;entryDy=0;entryPerimeter=0;exitX=1.008;exitY=0.8;exitDx=0;exitDy=0;exitPerimeter=0;" edge="1" parent="1" source="oNIHpnh7bQgrqTydq-CB-11" target="oNIHpnh7bQgrqTydq-CB-24">
          <mxGeometry width="100" height="100" relative="1" as="geometry">
            <mxPoint x="390" y="230" as="sourcePoint" />
            <mxPoint x="490" y="130" as="targetPoint" />
          </mxGeometry>
        </mxCell>
        <mxCell id="oNIHpnh7bQgrqTydq-CB-38" value="" style="fontSize=12;html=1;endArrow=ERoneToMany;exitX=-0.003;exitY=0.652;exitDx=0;exitDy=0;entryX=1.016;entryY=0;entryDx=0;entryDy=0;exitPerimeter=0;entryPerimeter=0;" edge="1" parent="1" source="oNIHpnh7bQgrqTydq-CB-111" target="oNIHpnh7bQgrqTydq-CB-121">
          <mxGeometry width="100" height="100" relative="1" as="geometry">
            <mxPoint x="363" y="340" as="sourcePoint" />
            <mxPoint x="-650" y="230" as="targetPoint" />
          </mxGeometry>
        </mxCell>
        <mxCell id="oNIHpnh7bQgrqTydq-CB-39" value="Task" style="shape=table;startSize=30;container=1;collapsible=1;childLayout=tableLayout;fixedRows=1;rowLines=0;fontStyle=1;align=center;resizeLast=1;" vertex="1" parent="1">
          <mxGeometry x="530" y="240" width="250" height="190" as="geometry" />
        </mxCell>
        <mxCell id="oNIHpnh7bQgrqTydq-CB-40" value="" style="shape=partialRectangle;collapsible=0;dropTarget=0;pointerEvents=0;fillColor=none;points=[[0,0.5],[1,0.5]];portConstraint=eastwest;top=0;left=0;right=0;bottom=1;" vertex="1" parent="oNIHpnh7bQgrqTydq-CB-39">
          <mxGeometry y="30" width="250" height="30" as="geometry" />
        </mxCell>
        <mxCell id="oNIHpnh7bQgrqTydq-CB-41" value="PK" style="shape=partialRectangle;overflow=hidden;connectable=0;fillColor=none;top=0;left=0;bottom=0;right=0;fontStyle=1;" vertex="1" parent="oNIHpnh7bQgrqTydq-CB-40">
          <mxGeometry width="30" height="30" as="geometry" />
        </mxCell>
        <mxCell id="oNIHpnh7bQgrqTydq-CB-42" value="id int NOT NULL " style="shape=partialRectangle;overflow=hidden;connectable=0;fillColor=none;top=0;left=0;bottom=0;right=0;align=left;spacingLeft=6;fontStyle=5;" vertex="1" parent="oNIHpnh7bQgrqTydq-CB-40">
          <mxGeometry x="30" width="220" height="30" as="geometry" />
        </mxCell>
        <mxCell id="oNIHpnh7bQgrqTydq-CB-43" value="" style="shape=partialRectangle;collapsible=0;dropTarget=0;pointerEvents=0;fillColor=none;points=[[0,0.5],[1,0.5]];portConstraint=eastwest;top=0;left=0;right=0;bottom=0;" vertex="1" parent="oNIHpnh7bQgrqTydq-CB-39">
          <mxGeometry y="60" width="250" height="30" as="geometry" />
        </mxCell>
        <mxCell id="oNIHpnh7bQgrqTydq-CB-44" value="" style="shape=partialRectangle;overflow=hidden;connectable=0;fillColor=none;top=0;left=0;bottom=0;right=0;" vertex="1" parent="oNIHpnh7bQgrqTydq-CB-43">
          <mxGeometry width="30" height="30" as="geometry" />
        </mxCell>
        <mxCell id="oNIHpnh7bQgrqTydq-CB-45" value="name string NOT NULL" style="shape=partialRectangle;overflow=hidden;connectable=0;fillColor=none;top=0;left=0;bottom=0;right=0;align=left;spacingLeft=6;" vertex="1" parent="oNIHpnh7bQgrqTydq-CB-43">
          <mxGeometry x="30" width="220" height="30" as="geometry" />
        </mxCell>
        <mxCell id="oNIHpnh7bQgrqTydq-CB-46" value="" style="shape=partialRectangle;collapsible=0;dropTarget=0;pointerEvents=0;fillColor=none;points=[[0,0.5],[1,0.5]];portConstraint=eastwest;top=0;left=0;right=0;bottom=0;" vertex="1" parent="oNIHpnh7bQgrqTydq-CB-39">
          <mxGeometry y="90" width="250" height="30" as="geometry" />
        </mxCell>
        <mxCell id="oNIHpnh7bQgrqTydq-CB-47" value="" style="shape=partialRectangle;overflow=hidden;connectable=0;fillColor=none;top=0;left=0;bottom=0;right=0;" vertex="1" parent="oNIHpnh7bQgrqTydq-CB-46">
          <mxGeometry width="30" height="30" as="geometry" />
        </mxCell>
        <mxCell id="oNIHpnh7bQgrqTydq-CB-48" value="description string NOT NULL" style="shape=partialRectangle;overflow=hidden;connectable=0;fillColor=none;top=0;left=0;bottom=0;right=0;align=left;spacingLeft=6;" vertex="1" parent="oNIHpnh7bQgrqTydq-CB-46">
          <mxGeometry x="30" width="220" height="30" as="geometry" />
        </mxCell>
        <mxCell id="oNIHpnh7bQgrqTydq-CB-151" value="" style="shape=partialRectangle;collapsible=0;dropTarget=0;pointerEvents=0;fillColor=none;points=[[0,0.5],[1,0.5]];portConstraint=eastwest;top=0;left=0;right=0;bottom=0;" vertex="1" parent="oNIHpnh7bQgrqTydq-CB-39">
          <mxGeometry y="120" width="250" height="30" as="geometry" />
        </mxCell>
        <mxCell id="oNIHpnh7bQgrqTydq-CB-152" value="" style="shape=partialRectangle;overflow=hidden;connectable=0;fillColor=none;top=0;left=0;bottom=0;right=0;" vertex="1" parent="oNIHpnh7bQgrqTydq-CB-151">
          <mxGeometry width="30" height="30" as="geometry" />
        </mxCell>
        <mxCell id="oNIHpnh7bQgrqTydq-CB-153" value="image string NOT NULL" style="shape=partialRectangle;overflow=hidden;connectable=0;fillColor=none;top=0;left=0;bottom=0;right=0;align=left;spacingLeft=6;" vertex="1" parent="oNIHpnh7bQgrqTydq-CB-151">
          <mxGeometry x="30" width="220" height="30" as="geometry" />
        </mxCell>
        <mxCell id="oNIHpnh7bQgrqTydq-CB-184" value="" style="shape=partialRectangle;collapsible=0;dropTarget=0;pointerEvents=0;fillColor=none;points=[[0,0.5],[1,0.5]];portConstraint=eastwest;top=0;left=0;right=0;bottom=0;" vertex="1" parent="oNIHpnh7bQgrqTydq-CB-39">
          <mxGeometry y="150" width="250" height="30" as="geometry" />
        </mxCell>
        <mxCell id="oNIHpnh7bQgrqTydq-CB-185" value="" style="shape=partialRectangle;overflow=hidden;connectable=0;fillColor=none;top=0;left=0;bottom=0;right=0;" vertex="1" parent="oNIHpnh7bQgrqTydq-CB-184">
          <mxGeometry width="30" height="30" as="geometry" />
        </mxCell>
        <mxCell id="oNIHpnh7bQgrqTydq-CB-186" value="status string NOT NULL" style="shape=partialRectangle;overflow=hidden;connectable=0;fillColor=none;top=0;left=0;bottom=0;right=0;align=left;spacingLeft=6;" vertex="1" parent="oNIHpnh7bQgrqTydq-CB-184">
          <mxGeometry x="30" width="220" height="30" as="geometry" />
        </mxCell>
        <mxCell id="oNIHpnh7bQgrqTydq-CB-49" value="User" style="shape=table;startSize=30;container=1;collapsible=1;childLayout=tableLayout;fixedRows=1;rowLines=0;fontStyle=1;align=center;resizeLast=1;" vertex="1" parent="1">
          <mxGeometry x="-130" y="-470" width="240" height="230.00000000000023" as="geometry" />
        </mxCell>
        <mxCell id="oNIHpnh7bQgrqTydq-CB-50" value="" style="shape=partialRectangle;collapsible=0;dropTarget=0;pointerEvents=0;fillColor=none;points=[[0,0.5],[1,0.5]];portConstraint=eastwest;top=0;left=0;right=0;bottom=1;" vertex="1" parent="oNIHpnh7bQgrqTydq-CB-49">
          <mxGeometry y="30" width="240" height="30" as="geometry" />
        </mxCell>
        <mxCell id="oNIHpnh7bQgrqTydq-CB-51" value="PK" style="shape=partialRectangle;overflow=hidden;connectable=0;fillColor=none;top=0;left=0;bottom=0;right=0;fontStyle=1;" vertex="1" parent="oNIHpnh7bQgrqTydq-CB-50">
          <mxGeometry width="30" height="30" as="geometry" />
        </mxCell>
        <mxCell id="oNIHpnh7bQgrqTydq-CB-52" value="id int NOT NULL " style="shape=partialRectangle;overflow=hidden;connectable=0;fillColor=none;top=0;left=0;bottom=0;right=0;align=left;spacingLeft=6;fontStyle=5;" vertex="1" parent="oNIHpnh7bQgrqTydq-CB-50">
          <mxGeometry x="30" width="210" height="30" as="geometry" />
        </mxCell>
        <mxCell id="oNIHpnh7bQgrqTydq-CB-53" value="" style="shape=partialRectangle;collapsible=0;dropTarget=0;pointerEvents=0;fillColor=none;points=[[0,0.5],[1,0.5]];portConstraint=eastwest;top=0;left=0;right=0;bottom=0;" vertex="1" parent="oNIHpnh7bQgrqTydq-CB-49">
          <mxGeometry y="60" width="240" height="30" as="geometry" />
        </mxCell>
        <mxCell id="oNIHpnh7bQgrqTydq-CB-54" value="" style="shape=partialRectangle;overflow=hidden;connectable=0;fillColor=none;top=0;left=0;bottom=0;right=0;" vertex="1" parent="oNIHpnh7bQgrqTydq-CB-53">
          <mxGeometry width="30" height="30" as="geometry" />
        </mxCell>
        <mxCell id="oNIHpnh7bQgrqTydq-CB-55" value="username string NOT NULL" style="shape=partialRectangle;overflow=hidden;connectable=0;fillColor=none;top=0;left=0;bottom=0;right=0;align=left;spacingLeft=6;" vertex="1" parent="oNIHpnh7bQgrqTydq-CB-53">
          <mxGeometry x="30" width="210" height="30" as="geometry" />
        </mxCell>
        <mxCell id="oNIHpnh7bQgrqTydq-CB-56" value="" style="shape=partialRectangle;collapsible=0;dropTarget=0;pointerEvents=0;fillColor=none;points=[[0,0.5],[1,0.5]];portConstraint=eastwest;top=0;left=0;right=0;bottom=0;" vertex="1" parent="oNIHpnh7bQgrqTydq-CB-49">
          <mxGeometry y="90" width="240" height="30" as="geometry" />
        </mxCell>
        <mxCell id="oNIHpnh7bQgrqTydq-CB-57" value="" style="shape=partialRectangle;overflow=hidden;connectable=0;fillColor=none;top=0;left=0;bottom=0;right=0;" vertex="1" parent="oNIHpnh7bQgrqTydq-CB-56">
          <mxGeometry width="30" height="30" as="geometry" />
        </mxCell>
        <mxCell id="oNIHpnh7bQgrqTydq-CB-58" value="password string NOT NULL" style="shape=partialRectangle;overflow=hidden;connectable=0;fillColor=none;top=0;left=0;bottom=0;right=0;align=left;spacingLeft=6;" vertex="1" parent="oNIHpnh7bQgrqTydq-CB-56">
          <mxGeometry x="30" width="210" height="30" as="geometry" />
        </mxCell>
        <mxCell id="oNIHpnh7bQgrqTydq-CB-107" value="" style="shape=partialRectangle;collapsible=0;dropTarget=0;pointerEvents=0;fillColor=none;points=[[0,0.5],[1,0.5]];portConstraint=eastwest;top=0;left=0;right=0;bottom=0;" vertex="1" parent="oNIHpnh7bQgrqTydq-CB-49">
          <mxGeometry y="120" width="240" height="30" as="geometry" />
        </mxCell>
        <mxCell id="oNIHpnh7bQgrqTydq-CB-108" value="" style="shape=partialRectangle;overflow=hidden;connectable=0;fillColor=none;top=0;left=0;bottom=0;right=0;" vertex="1" parent="oNIHpnh7bQgrqTydq-CB-107">
          <mxGeometry width="30" height="30" as="geometry" />
        </mxCell>
        <mxCell id="oNIHpnh7bQgrqTydq-CB-109" value="phoneNumber int NOT NULL" style="shape=partialRectangle;overflow=hidden;connectable=0;fillColor=none;top=0;left=0;bottom=0;right=0;align=left;spacingLeft=6;" vertex="1" parent="oNIHpnh7bQgrqTydq-CB-107">
          <mxGeometry x="30" width="210" height="30" as="geometry" />
        </mxCell>
        <mxCell id="oNIHpnh7bQgrqTydq-CB-117" value="" style="shape=partialRectangle;collapsible=0;dropTarget=0;pointerEvents=0;fillColor=none;points=[[0,0.5],[1,0.5]];portConstraint=eastwest;top=0;left=0;right=0;bottom=0;" vertex="1" parent="oNIHpnh7bQgrqTydq-CB-49">
          <mxGeometry y="150" width="240" height="30" as="geometry" />
        </mxCell>
        <mxCell id="oNIHpnh7bQgrqTydq-CB-118" value="" style="shape=partialRectangle;overflow=hidden;connectable=0;fillColor=none;top=0;left=0;bottom=0;right=0;" vertex="1" parent="oNIHpnh7bQgrqTydq-CB-117">
          <mxGeometry width="30" height="30" as="geometry" />
        </mxCell>
        <mxCell id="oNIHpnh7bQgrqTydq-CB-119" value="email string NOT NULL" style="shape=partialRectangle;overflow=hidden;connectable=0;fillColor=none;top=0;left=0;bottom=0;right=0;align=left;spacingLeft=6;" vertex="1" parent="oNIHpnh7bQgrqTydq-CB-117">
          <mxGeometry x="30" width="210" height="30" as="geometry" />
        </mxCell>
        <mxCell id="oNIHpnh7bQgrqTydq-CB-120" value="Worker" style="shape=table;startSize=30;container=1;collapsible=1;childLayout=tableLayout;fixedRows=1;rowLines=0;fontStyle=1;align=center;resizeLast=1;" vertex="1" parent="1">
          <mxGeometry x="-580" y="20" width="250" height="100" as="geometry" />
        </mxCell>
        <mxCell id="oNIHpnh7bQgrqTydq-CB-121" value="" style="shape=partialRectangle;collapsible=0;dropTarget=0;pointerEvents=0;fillColor=none;points=[[0,0.5],[1,0.5]];portConstraint=eastwest;top=0;left=0;right=0;bottom=1;" vertex="1" parent="oNIHpnh7bQgrqTydq-CB-120">
          <mxGeometry y="30" width="250" height="30" as="geometry" />
        </mxCell>
        <mxCell id="oNIHpnh7bQgrqTydq-CB-122" value="PK" style="shape=partialRectangle;overflow=hidden;connectable=0;fillColor=none;top=0;left=0;bottom=0;right=0;fontStyle=1;" vertex="1" parent="oNIHpnh7bQgrqTydq-CB-121">
          <mxGeometry width="30" height="30" as="geometry" />
        </mxCell>
        <mxCell id="oNIHpnh7bQgrqTydq-CB-123" value="id int NOT NULL " style="shape=partialRectangle;overflow=hidden;connectable=0;fillColor=none;top=0;left=0;bottom=0;right=0;align=left;spacingLeft=6;fontStyle=5;" vertex="1" parent="oNIHpnh7bQgrqTydq-CB-121">
          <mxGeometry x="30" width="220" height="30" as="geometry" />
        </mxCell>
        <mxCell id="oNIHpnh7bQgrqTydq-CB-124" value="" style="shape=partialRectangle;collapsible=0;dropTarget=0;pointerEvents=0;fillColor=none;points=[[0,0.5],[1,0.5]];portConstraint=eastwest;top=0;left=0;right=0;bottom=0;" vertex="1" parent="oNIHpnh7bQgrqTydq-CB-120">
          <mxGeometry y="60" width="250" height="30" as="geometry" />
        </mxCell>
        <mxCell id="oNIHpnh7bQgrqTydq-CB-125" value="" style="shape=partialRectangle;overflow=hidden;connectable=0;fillColor=none;top=0;left=0;bottom=0;right=0;" vertex="1" parent="oNIHpnh7bQgrqTydq-CB-124">
          <mxGeometry width="30" height="30" as="geometry" />
        </mxCell>
        <mxCell id="oNIHpnh7bQgrqTydq-CB-126" value="name string NOT NULL" style="shape=partialRectangle;overflow=hidden;connectable=0;fillColor=none;top=0;left=0;bottom=0;right=0;align=left;spacingLeft=6;" vertex="1" parent="oNIHpnh7bQgrqTydq-CB-124">
          <mxGeometry x="30" width="220" height="30" as="geometry" />
        </mxCell>
        <mxCell id="oNIHpnh7bQgrqTydq-CB-130" value="CompanyClient" style="shape=table;startSize=30;container=1;collapsible=1;childLayout=tableLayout;fixedRows=1;rowLines=0;fontStyle=1;align=center;resizeLast=1;" vertex="1" parent="1">
          <mxGeometry x="164" y="-250" width="250" height="160" as="geometry" />
        </mxCell>
        <mxCell id="oNIHpnh7bQgrqTydq-CB-131" value="" style="shape=partialRectangle;collapsible=0;dropTarget=0;pointerEvents=0;fillColor=none;points=[[0,0.5],[1,0.5]];portConstraint=eastwest;top=0;left=0;right=0;bottom=1;" vertex="1" parent="oNIHpnh7bQgrqTydq-CB-130">
          <mxGeometry y="30" width="250" height="30" as="geometry" />
        </mxCell>
        <mxCell id="oNIHpnh7bQgrqTydq-CB-132" value="PK" style="shape=partialRectangle;overflow=hidden;connectable=0;fillColor=none;top=0;left=0;bottom=0;right=0;fontStyle=1;" vertex="1" parent="oNIHpnh7bQgrqTydq-CB-131">
          <mxGeometry width="30" height="30" as="geometry" />
        </mxCell>
        <mxCell id="oNIHpnh7bQgrqTydq-CB-133" value="id int NOT NULL " style="shape=partialRectangle;overflow=hidden;connectable=0;fillColor=none;top=0;left=0;bottom=0;right=0;align=left;spacingLeft=6;fontStyle=5;" vertex="1" parent="oNIHpnh7bQgrqTydq-CB-131">
          <mxGeometry x="30" width="220" height="30" as="geometry" />
        </mxCell>
        <mxCell id="oNIHpnh7bQgrqTydq-CB-134" value="" style="shape=partialRectangle;collapsible=0;dropTarget=0;pointerEvents=0;fillColor=none;points=[[0,0.5],[1,0.5]];portConstraint=eastwest;top=0;left=0;right=0;bottom=0;" vertex="1" parent="oNIHpnh7bQgrqTydq-CB-130">
          <mxGeometry y="60" width="250" height="30" as="geometry" />
        </mxCell>
        <mxCell id="oNIHpnh7bQgrqTydq-CB-135" value="" style="shape=partialRectangle;overflow=hidden;connectable=0;fillColor=none;top=0;left=0;bottom=0;right=0;" vertex="1" parent="oNIHpnh7bQgrqTydq-CB-134">
          <mxGeometry width="30" height="30" as="geometry" />
        </mxCell>
        <mxCell id="oNIHpnh7bQgrqTydq-CB-136" value="companyId int NOT NULL" style="shape=partialRectangle;overflow=hidden;connectable=0;fillColor=none;top=0;left=0;bottom=0;right=0;align=left;spacingLeft=6;" vertex="1" parent="oNIHpnh7bQgrqTydq-CB-134">
          <mxGeometry x="30" width="220" height="30" as="geometry" />
        </mxCell>
        <mxCell id="oNIHpnh7bQgrqTydq-CB-137" value="" style="shape=partialRectangle;collapsible=0;dropTarget=0;pointerEvents=0;fillColor=none;points=[[0,0.5],[1,0.5]];portConstraint=eastwest;top=0;left=0;right=0;bottom=0;" vertex="1" parent="oNIHpnh7bQgrqTydq-CB-130">
          <mxGeometry y="90" width="250" height="30" as="geometry" />
        </mxCell>
        <mxCell id="oNIHpnh7bQgrqTydq-CB-138" value="" style="shape=partialRectangle;overflow=hidden;connectable=0;fillColor=none;top=0;left=0;bottom=0;right=0;" vertex="1" parent="oNIHpnh7bQgrqTydq-CB-137">
          <mxGeometry width="30" height="30" as="geometry" />
        </mxCell>
        <mxCell id="oNIHpnh7bQgrqTydq-CB-139" value="clientId int NOT NULL" style="shape=partialRectangle;overflow=hidden;connectable=0;fillColor=none;top=0;left=0;bottom=0;right=0;align=left;spacingLeft=6;" vertex="1" parent="oNIHpnh7bQgrqTydq-CB-137">
          <mxGeometry x="30" width="220" height="30" as="geometry" />
        </mxCell>
        <mxCell id="oNIHpnh7bQgrqTydq-CB-140" value="" style="shape=partialRectangle;collapsible=0;dropTarget=0;pointerEvents=0;fillColor=none;points=[[0,0.5],[1,0.5]];portConstraint=eastwest;top=0;left=0;right=0;bottom=0;" vertex="1" parent="oNIHpnh7bQgrqTydq-CB-130">
          <mxGeometry y="120" width="250" height="30" as="geometry" />
        </mxCell>
        <mxCell id="oNIHpnh7bQgrqTydq-CB-141" value="" style="shape=partialRectangle;overflow=hidden;connectable=0;fillColor=none;top=0;left=0;bottom=0;right=0;" vertex="1" parent="oNIHpnh7bQgrqTydq-CB-140">
          <mxGeometry width="30" height="30" as="geometry" />
        </mxCell>
        <mxCell id="oNIHpnh7bQgrqTydq-CB-142" value="status string NOT NULL" style="shape=partialRectangle;overflow=hidden;connectable=0;fillColor=none;top=0;left=0;bottom=0;right=0;align=left;spacingLeft=6;" vertex="1" parent="oNIHpnh7bQgrqTydq-CB-140">
          <mxGeometry x="30" width="220" height="30" as="geometry" />
        </mxCell>
        <mxCell id="oNIHpnh7bQgrqTydq-CB-148" value="" style="endArrow=none;html=1;entryX=0.5;entryY=1;entryDx=0;entryDy=0;startArrow=none;" edge="1" parent="1" target="oNIHpnh7bQgrqTydq-CB-130">
          <mxGeometry width="50" height="50" relative="1" as="geometry">
            <mxPoint x="290" y="10" as="sourcePoint" />
            <mxPoint x="430" y="180" as="targetPoint" />
          </mxGeometry>
        </mxCell>
        <mxCell id="oNIHpnh7bQgrqTydq-CB-150" value="" style="edgeStyle=entityRelationEdgeStyle;fontSize=12;html=1;endArrow=ERzeroToMany;startArrow=ERzeroToOne;entryX=-0.003;entryY=0.146;entryDx=0;entryDy=0;entryPerimeter=0;exitX=1;exitY=0.933;exitDx=0;exitDy=0;exitPerimeter=0;" edge="1" parent="1" target="oNIHpnh7bQgrqTydq-CB-39">
          <mxGeometry width="100" height="100" relative="1" as="geometry">
            <mxPoint x="120" y="67.99000000000001" as="sourcePoint" />
            <mxPoint x="500" y="330" as="targetPoint" />
          </mxGeometry>
        </mxCell>
        <mxCell id="oNIHpnh7bQgrqTydq-CB-170" value="" style="edgeStyle=orthogonalEdgeStyle;fontSize=12;html=1;endArrow=ERzeroToMany;startArrow=ERzeroToOne;entryX=0.5;entryY=0;entryDx=0;entryDy=0;exitX=0.5;exitY=1;exitDx=0;exitDy=0;curved=1;" edge="1" parent="1" source="oNIHpnh7bQgrqTydq-CB-17" target="oNIHpnh7bQgrqTydq-CB-39">
          <mxGeometry width="100" height="100" relative="1" as="geometry">
            <mxPoint x="-20" y="325" as="sourcePoint" />
            <mxPoint x="509.25000000000045" y="403.3600000000001" as="targetPoint" />
          </mxGeometry>
        </mxCell>
        <mxCell id="oNIHpnh7bQgrqTydq-CB-171" value="" style="edgeStyle=orthogonalEdgeStyle;fontSize=12;html=1;endArrow=ERmandOne;startArrow=ERmandOne;exitX=1.018;exitY=0.935;exitDx=0;exitDy=0;entryX=0.5;entryY=0;entryDx=0;entryDy=0;exitPerimeter=0;curved=1;" edge="1" parent="1" source="oNIHpnh7bQgrqTydq-CB-117" target="oNIHpnh7bQgrqTydq-CB-17">
          <mxGeometry width="100" height="100" relative="1" as="geometry">
            <mxPoint x="330" y="800" as="sourcePoint" />
            <mxPoint x="320" y="250" as="targetPoint" />
          </mxGeometry>
        </mxCell>
        <mxCell id="oNIHpnh7bQgrqTydq-CB-173" value="" style="fontSize=12;html=1;endArrow=ERmandOne;startArrow=ERmandOne;entryX=0.5;entryY=1;entryDx=0;entryDy=0;exitX=0.5;exitY=0;exitDx=0;exitDy=0;" edge="1" parent="1" source="oNIHpnh7bQgrqTydq-CB-7" target="oNIHpnh7bQgrqTydq-CB-49">
          <mxGeometry width="100" height="100" relative="1" as="geometry">
            <mxPoint x="-45" y="840" as="sourcePoint" />
            <mxPoint x="55" y="740" as="targetPoint" />
          </mxGeometry>
        </mxCell>
        <mxCell id="oNIHpnh7bQgrqTydq-CB-174" value="" style="fontSize=12;html=1;endArrow=ERmandOne;startArrow=ERmandOne;exitX=-0.012;exitY=-0.067;exitDx=0;exitDy=0;entryX=0.5;entryY=0;entryDx=0;entryDy=0;exitPerimeter=0;edgeStyle=orthogonalEdgeStyle;curved=1;" edge="1" parent="1" source="oNIHpnh7bQgrqTydq-CB-56" target="oNIHpnh7bQgrqTydq-CB-120">
          <mxGeometry width="100" height="100" relative="1" as="geometry">
            <mxPoint x="470" y="860" as="sourcePoint" />
            <mxPoint x="570" y="760" as="targetPoint" />
          </mxGeometry>
        </mxCell>
        <mxCell id="oNIHpnh7bQgrqTydq-CB-175" value="" style="edgeStyle=orthogonalEdgeStyle;fontSize=12;html=1;endArrow=ERzeroToMany;startArrow=ERzeroToOne;exitX=0.5;exitY=1;exitDx=0;exitDy=0;entryX=0;entryY=0.5;entryDx=0;entryDy=0;curved=1;" edge="1" parent="1" source="oNIHpnh7bQgrqTydq-CB-120" target="oNIHpnh7bQgrqTydq-CB-151">
          <mxGeometry width="100" height="100" relative="1" as="geometry">
            <mxPoint x="390" y="560" as="sourcePoint" />
            <mxPoint x="490" y="460" as="targetPoint" />
          </mxGeometry>
        </mxCell>
        <mxCell id="oNIHpnh7bQgrqTydq-CB-17" value="Client" style="shape=table;startSize=30;container=1;collapsible=1;childLayout=tableLayout;fixedRows=1;rowLines=0;fontStyle=1;align=center;resizeLast=1;" vertex="1" parent="1">
          <mxGeometry x="530" y="-60" width="250" height="130" as="geometry" />
        </mxCell>
        <mxCell id="oNIHpnh7bQgrqTydq-CB-18" value="" style="shape=partialRectangle;collapsible=0;dropTarget=0;pointerEvents=0;fillColor=none;points=[[0,0.5],[1,0.5]];portConstraint=eastwest;top=0;left=0;right=0;bottom=1;" vertex="1" parent="oNIHpnh7bQgrqTydq-CB-17">
          <mxGeometry y="30" width="250" height="30" as="geometry" />
        </mxCell>
        <mxCell id="oNIHpnh7bQgrqTydq-CB-19" value="PK" style="shape=partialRectangle;overflow=hidden;connectable=0;fillColor=none;top=0;left=0;bottom=0;right=0;fontStyle=1;" vertex="1" parent="oNIHpnh7bQgrqTydq-CB-18">
          <mxGeometry width="30" height="30" as="geometry" />
        </mxCell>
        <mxCell id="oNIHpnh7bQgrqTydq-CB-20" value="idÂ int NOT NULL " style="shape=partialRectangle;overflow=hidden;connectable=0;fillColor=none;top=0;left=0;bottom=0;right=0;align=left;spacingLeft=6;fontStyle=5;" vertex="1" parent="oNIHpnh7bQgrqTydq-CB-18">
          <mxGeometry x="30" width="220" height="30" as="geometry" />
        </mxCell>
        <mxCell id="oNIHpnh7bQgrqTydq-CB-21" value="" style="shape=partialRectangle;collapsible=0;dropTarget=0;pointerEvents=0;fillColor=none;points=[[0,0.5],[1,0.5]];portConstraint=eastwest;top=0;left=0;right=0;bottom=0;" vertex="1" parent="oNIHpnh7bQgrqTydq-CB-17">
          <mxGeometry y="60" width="250" height="30" as="geometry" />
        </mxCell>
        <mxCell id="oNIHpnh7bQgrqTydq-CB-22" value="" style="shape=partialRectangle;overflow=hidden;connectable=0;fillColor=none;top=0;left=0;bottom=0;right=0;" vertex="1" parent="oNIHpnh7bQgrqTydq-CB-21">
          <mxGeometry width="30" height="30" as="geometry" />
        </mxCell>
        <mxCell id="oNIHpnh7bQgrqTydq-CB-23" value="firstName string NOT NULL" style="shape=partialRectangle;overflow=hidden;connectable=0;fillColor=none;top=0;left=0;bottom=0;right=0;align=left;spacingLeft=6;" vertex="1" parent="oNIHpnh7bQgrqTydq-CB-21">
          <mxGeometry x="30" width="220" height="30" as="geometry" />
        </mxCell>
        <mxCell id="oNIHpnh7bQgrqTydq-CB-24" value="" style="shape=partialRectangle;collapsible=0;dropTarget=0;pointerEvents=0;fillColor=none;points=[[0,0.5],[1,0.5]];portConstraint=eastwest;top=0;left=0;right=0;bottom=0;" vertex="1" parent="oNIHpnh7bQgrqTydq-CB-17">
          <mxGeometry y="90" width="250" height="30" as="geometry" />
        </mxCell>
        <mxCell id="oNIHpnh7bQgrqTydq-CB-25" value="" style="shape=partialRectangle;overflow=hidden;connectable=0;fillColor=none;top=0;left=0;bottom=0;right=0;" vertex="1" parent="oNIHpnh7bQgrqTydq-CB-24">
          <mxGeometry width="30" height="30" as="geometry" />
        </mxCell>
        <mxCell id="oNIHpnh7bQgrqTydq-CB-26" value="lastName string NOT NULL" style="shape=partialRectangle;overflow=hidden;connectable=0;fillColor=none;top=0;left=0;bottom=0;right=0;align=left;spacingLeft=6;" vertex="1" parent="oNIHpnh7bQgrqTydq-CB-24">
          <mxGeometry x="30" width="220" height="30" as="geometry" />
        </mxCell>
        <mxCell id="oNIHpnh7bQgrqTydq-CB-188" value="Category" style="shape=table;startSize=30;container=1;collapsible=1;childLayout=tableLayout;fixedRows=1;rowLines=0;fontStyle=1;align=center;resizeLast=1;" vertex="1" parent="1">
          <mxGeometry x="-140" y="160" width="250" height="130" as="geometry" />
        </mxCell>
        <mxCell id="oNIHpnh7bQgrqTydq-CB-189" value="" style="shape=partialRectangle;collapsible=0;dropTarget=0;pointerEvents=0;fillColor=none;points=[[0,0.5],[1,0.5]];portConstraint=eastwest;top=0;left=0;right=0;bottom=1;" vertex="1" parent="oNIHpnh7bQgrqTydq-CB-188">
          <mxGeometry y="30" width="250" height="30" as="geometry" />
        </mxCell>
        <mxCell id="oNIHpnh7bQgrqTydq-CB-190" value="PK" style="shape=partialRectangle;overflow=hidden;connectable=0;fillColor=none;top=0;left=0;bottom=0;right=0;fontStyle=1;" vertex="1" parent="oNIHpnh7bQgrqTydq-CB-189">
          <mxGeometry width="30" height="30" as="geometry" />
        </mxCell>
        <mxCell id="oNIHpnh7bQgrqTydq-CB-191" value="idÂ int NOT NULL " style="shape=partialRectangle;overflow=hidden;connectable=0;fillColor=none;top=0;left=0;bottom=0;right=0;align=left;spacingLeft=6;fontStyle=5;" vertex="1" parent="oNIHpnh7bQgrqTydq-CB-189">
          <mxGeometry x="30" width="220" height="30" as="geometry" />
        </mxCell>
        <mxCell id="oNIHpnh7bQgrqTydq-CB-192" value="" style="shape=partialRectangle;collapsible=0;dropTarget=0;pointerEvents=0;fillColor=none;points=[[0,0.5],[1,0.5]];portConstraint=eastwest;top=0;left=0;right=0;bottom=0;" vertex="1" parent="oNIHpnh7bQgrqTydq-CB-188">
          <mxGeometry y="60" width="250" height="30" as="geometry" />
        </mxCell>
        <mxCell id="oNIHpnh7bQgrqTydq-CB-193" value="" style="shape=partialRectangle;overflow=hidden;connectable=0;fillColor=none;top=0;left=0;bottom=0;right=0;" vertex="1" parent="oNIHpnh7bQgrqTydq-CB-192">
          <mxGeometry width="30" height="30" as="geometry" />
        </mxCell>
        <mxCell id="oNIHpnh7bQgrqTydq-CB-194" value="name string NOT NULL" style="shape=partialRectangle;overflow=hidden;connectable=0;fillColor=none;top=0;left=0;bottom=0;right=0;align=left;spacingLeft=6;" vertex="1" parent="oNIHpnh7bQgrqTydq-CB-192">
          <mxGeometry x="30" width="220" height="30" as="geometry" />
        </mxCell>
        <mxCell id="oNIHpnh7bQgrqTydq-CB-198" value="" style="shape=partialRectangle;collapsible=0;dropTarget=0;pointerEvents=0;fillColor=none;points=[[0,0.5],[1,0.5]];portConstraint=eastwest;top=0;left=0;right=0;bottom=0;" vertex="1" parent="oNIHpnh7bQgrqTydq-CB-188">
          <mxGeometry y="90" width="250" height="30" as="geometry" />
        </mxCell>
        <mxCell id="oNIHpnh7bQgrqTydq-CB-199" value="" style="shape=partialRectangle;overflow=hidden;connectable=0;fillColor=none;top=0;left=0;bottom=0;right=0;" vertex="1" parent="oNIHpnh7bQgrqTydq-CB-198">
          <mxGeometry width="30" height="30" as="geometry" />
        </mxCell>
        <mxCell id="oNIHpnh7bQgrqTydq-CB-200" value="image string NOT NULL" style="shape=partialRectangle;overflow=hidden;connectable=0;fillColor=none;top=0;left=0;bottom=0;right=0;align=left;spacingLeft=6;" vertex="1" parent="oNIHpnh7bQgrqTydq-CB-198">
          <mxGeometry x="30" width="220" height="30" as="geometry" />
        </mxCell>
        <mxCell id="oNIHpnh7bQgrqTydq-CB-202" value="" style="fontSize=12;html=1;endArrow=ERzeroToMany;startArrow=ERmandOne;exitX=0.525;exitY=-0.015;exitDx=0;exitDy=0;exitPerimeter=0;entryX=0.5;entryY=1;entryDx=0;entryDy=0;" edge="1" parent="1" source="oNIHpnh7bQgrqTydq-CB-188" target="oNIHpnh7bQgrqTydq-CB-7">
          <mxGeometry width="100" height="100" relative="1" as="geometry">
            <mxPoint x="-10" y="140" as="sourcePoint" />
            <mxPoint x="90" y="40" as="targetPoint" />
          </mxGeometry>
        </mxCell>
      </root>
    </mxGraphModel>
  </diagram>
</mxfile>
